M48
INCH,TZ
T10C0.024
T11C0.024
T12C0.032
T13C0.036
T14C0.039
T15C0.040
T16C0.043
T17C0.044
T18C0.081
T19C0.110
T20C0.130
%
T10
X027403Y010242
T11
X028343Y011202
X021863Y011602
X016903Y008742
X013383Y008722
X013303Y008162
X011403Y008742
X007903Y008742
X007943Y011362
X007223Y012082
X005903Y012242
X003403Y009742
X004903Y005742
X005903Y004742
X012403Y004742
X013403Y004242
X015903Y004242
X012343Y011602
X012403Y012242
X016403Y011742
T12
X016903Y010242
X017903Y010242
X015903Y010242
X014903Y010242
X013903Y010242
X012903Y010242
X011903Y010242
X010903Y010242
X009903Y010242
X008903Y010242
X007903Y010242
X006903Y010242
X005903Y010242
X004903Y010242
X004903Y007242
X005903Y007242
X006903Y007242
X007903Y007242
X008903Y007242
X009903Y007242
X010903Y007242
X011903Y007242
X012903Y007242
X013903Y007242
X014903Y007242
X015903Y007242
X016903Y007242
X017903Y007242
X020153Y008242
X020903Y007742
X020903Y008742
X022403Y009742
X022403Y006742
X019903Y005242
X018903Y005242
X016903Y005242
X014903Y005242
X012903Y005242
X011903Y005242
X012403Y003742
X015403Y003742
X016403Y003742
X019403Y003742
X020403Y003742
X024403Y003742
X033403Y012242
X034403Y012242
T13
X005903Y003742
X004903Y003742
T14
X024403Y013242
X028403Y013242
T15
X030403Y013242
X031403Y013242
X031623Y009632
X034183Y009632
X034183Y007852
X031623Y007852
X031623Y005632
X034183Y005632
X034183Y003852
X031623Y003852
X018304Y013344
X017304Y013344
X016304Y013344
X015304Y013344
X014304Y013344
X013304Y013344
X012304Y013344
X011304Y013344
X010304Y013344
X009304Y013344
X008304Y013344
X007304Y013344
X006304Y013344
X005304Y013344
X004304Y013344
X003304Y013344
X002903Y007242
X002903Y006242
T16
X023903Y005142
X023903Y009142
T17
X022903Y012742
X021903Y012742
X020903Y012742
T18
X029903Y010642
X032903Y010642
X028903Y003642
T19
T20
M30

