G04 This is an RS-274x file exported by *
G04 gerbv version 2.5.0 *
G04 More information is available about gerbv at *
G04 http://gerbv.gpleda.org/ *
G04 --End of header info--*
%MOIN*%
%FSLAX23Y23*%
%IPPOS*%
G04 --Define apertures--*
%ADD10C,0.0000*%
%ADD11C,0.0520*%
%AMMACRO12*
5,1,8,0.000000,0.000000,0.056284,22.500000*
%
%ADD12MACRO12*%
%ADD13C,0.1210*%
%ADD14C,0.0645*%
%ADD15C,0.0740*%
%ADD16C,0.0520*%
%ADD17R,0.0600X0.0600*%
%ADD18C,0.0600*%
%ADD19C,0.0560*%
%ADD20C,0.0660*%
%ADD21C,0.0780*%
%ADD22C,0.0100*%
%ADD23C,0.0400*%
%ADD24C,0.0396*%
%ADD25C,0.0080*%
%ADD26C,0.0160*%
G04 --Start main section--*
G54D10*
G01X00240Y00274D02*
G01X00240Y01374D01*
G01X00240Y01374D02*
G01X03477Y01374D01*
G01X03477Y01374D02*
G01X03477Y00274D01*
G01X03477Y00274D02*
G01X00240Y00274D01*
G01X03012Y01334D02*
G01X03012Y01339D01*
G01X03012Y01330D02*
G01X03012Y01334D01*
G54D11*
G01X02240Y00648D02*
G01X02240Y00700D01*
G01X02240Y00948D02*
G01X02240Y01000D01*
G01X01790Y00998D02*
G01X01790Y01050D01*
G01X01690Y01050D02*
G01X01690Y00998D01*
G01X01590Y00998D02*
G01X01590Y01050D01*
G01X01490Y01050D02*
G01X01490Y00998D01*
G01X01390Y00998D02*
G01X01390Y01050D01*
G01X01290Y01050D02*
G01X01290Y00998D01*
G01X01190Y00998D02*
G01X01190Y01050D01*
G01X01090Y01050D02*
G01X01090Y00998D01*
G01X00990Y00998D02*
G01X00990Y01050D01*
G01X00890Y01050D02*
G01X00890Y00998D01*
G01X00790Y00998D02*
G01X00790Y01050D01*
G01X00690Y01050D02*
G01X00690Y00998D01*
G01X00590Y00998D02*
G01X00590Y01050D01*
G01X00490Y01050D02*
G01X00490Y00998D01*
G01X00490Y00750D02*
G01X00490Y00698D01*
G01X00590Y00698D02*
G01X00590Y00750D01*
G01X00690Y00750D02*
G01X00690Y00698D01*
G01X00790Y00698D02*
G01X00790Y00750D01*
G01X00890Y00750D02*
G01X00890Y00698D01*
G01X00990Y00698D02*
G01X00990Y00750D01*
G01X01090Y00750D02*
G01X01090Y00698D01*
G01X01190Y00698D02*
G01X01190Y00750D01*
G01X01290Y00750D02*
G01X01290Y00698D01*
G01X01390Y00698D02*
G01X01390Y00750D01*
G01X01490Y00750D02*
G01X01490Y00698D01*
G01X01590Y00698D02*
G01X01590Y00750D01*
G01X01690Y00750D02*
G01X01690Y00698D01*
G01X01790Y00698D02*
G01X01790Y00750D01*
G54D12*
G01X02015Y00824D03*
G01X02090Y00774D03*
G01X02090Y00874D03*
G01X01990Y00524D03*
G01X01890Y00524D03*
G01X01940Y00374D03*
G01X02040Y00374D03*
G01X02440Y00374D03*
G01X01640Y00374D03*
G01X01540Y00374D03*
G01X01290Y00524D03*
G01X01190Y00524D03*
G01X01240Y00374D03*
G54D13*
G01X02890Y00364D03*
G01X02990Y01064D03*
G01X03290Y01064D03*
G54D14*
G01X02390Y00914D03*
G01X02390Y00514D03*
G54D15*
G01X03162Y00563D03*
G01X03418Y00563D03*
G01X03418Y00385D03*
G01X03162Y00385D03*
G01X03162Y00785D03*
G01X03418Y00785D03*
G01X03418Y00963D03*
G01X03162Y00963D03*
G01X03340Y01224D03*
G01X03440Y01224D03*
G01X03140Y01324D03*
G01X03040Y01324D03*
G01X00290Y00724D03*
G01X00290Y00624D03*
G54D16*
G01X01490Y00524D03*
G01X01690Y00524D03*
G54D17*
G01X00330Y01334D03*
G54D18*
G01X00430Y01334D03*
G01X00530Y01334D03*
G01X00630Y01334D03*
G01X00730Y01334D03*
G01X00830Y01334D03*
G01X00930Y01334D03*
G01X01030Y01334D03*
G01X01130Y01334D03*
G01X01230Y01334D03*
G01X01330Y01334D03*
G01X01430Y01334D03*
G01X01530Y01334D03*
G01X01630Y01334D03*
G01X01730Y01334D03*
G01X01830Y01334D03*
G54D19*
G01X00590Y00402D02*
G01X00590Y00346D01*
G01X00490Y00346D02*
G01X00490Y00402D01*
G54D20*
G01X02090Y01241D02*
G01X02090Y01307D01*
G01X02190Y01307D02*
G01X02190Y01241D01*
G01X02290Y01241D02*
G01X02290Y01307D01*
G54D21*
G01X02440Y01324D03*
G01X02840Y01324D03*
G54D22*
G01X02890Y01274D02*
G01X03090Y01274D01*
G01X03090Y01274D02*
G01X03140Y01324D01*
G01X03340Y01224D02*
G01X02890Y01224D01*
G01X02890Y01224D02*
G01X02794Y01178D01*
G01X02794Y01178D02*
G01X02794Y00320D01*
G01X02794Y00320D02*
G01X01994Y00320D01*
G01X01994Y00320D02*
G01X01940Y00374D01*
G01X02034Y00376D02*
G01X02040Y00374D01*
G01X02034Y00376D02*
G01X01930Y00480D01*
G01X01930Y00480D02*
G01X01930Y00584D01*
G01X01930Y00584D02*
G01X01790Y00724D01*
G01X01642Y00824D02*
G01X02015Y00824D01*
G01X02050Y00848D02*
G01X02090Y00808D01*
G01X02090Y00808D02*
G01X02090Y00774D01*
G01X02090Y00774D02*
G01X02090Y00768D01*
G01X02090Y00768D02*
G01X01994Y00672D01*
G01X01994Y00672D02*
G01X01994Y00528D01*
G01X01994Y00528D02*
G01X01990Y00524D01*
G01X02240Y00674D02*
G01X02130Y00784D01*
G01X02130Y00784D02*
G01X02130Y00832D01*
G01X02130Y00832D02*
G01X02090Y00872D01*
G01X02090Y00872D02*
G01X02090Y00874D01*
G01X02050Y00848D02*
G01X02050Y01116D01*
G01X02050Y01116D02*
G01X02074Y01140D01*
G01X02074Y01140D02*
G01X02186Y01240D01*
G01X02186Y01160D02*
G01X02234Y01112D01*
G01X02234Y01112D02*
G01X02234Y00976D01*
G01X02234Y00976D02*
G01X02240Y00974D01*
G01X02240Y00974D02*
G01X02242Y00968D01*
G01X02242Y00968D02*
G01X02386Y00824D01*
G01X02386Y00824D02*
G01X02386Y00520D01*
G01X02386Y00520D02*
G01X02390Y00514D01*
G01X02390Y00514D02*
G01X02390Y00524D01*
G01X02390Y00514D02*
G01X02390Y00424D01*
G01X02390Y00424D02*
G01X02440Y00374D01*
G01X01642Y00376D02*
G01X01642Y00824D01*
G01X01690Y00874D02*
G01X01640Y00924D01*
G01X01640Y00924D02*
G01X01640Y01174D01*
G01X01530Y01328D02*
G01X01530Y01334D01*
G01X01530Y01328D02*
G01X01530Y00976D01*
G01X01530Y00976D02*
G01X01450Y00896D01*
G01X01450Y00896D02*
G01X01450Y00328D01*
G01X01450Y00328D02*
G01X00882Y00328D01*
G01X00882Y00328D02*
G01X00490Y00720D01*
G01X00490Y00720D02*
G01X00490Y00724D01*
G01X00340Y00674D02*
G01X00290Y00624D01*
G01X00340Y00674D02*
G01X00340Y00974D01*
G01X00650Y00848D02*
G01X00746Y00752D01*
G01X00746Y00752D02*
G01X00746Y00680D01*
G01X00746Y00680D02*
G01X00770Y00656D01*
G01X00770Y00656D02*
G01X00946Y00656D01*
G01X00946Y00656D02*
G01X00946Y00768D01*
G01X00946Y00768D02*
G01X00994Y00816D01*
G01X00994Y00816D02*
G01X01186Y00816D01*
G01X01186Y00816D02*
G01X01186Y00728D01*
G01X01186Y00728D02*
G01X01190Y00724D01*
G01X01146Y00672D02*
G01X01290Y00528D01*
G01X01290Y00528D02*
G01X01290Y00524D01*
G01X01194Y00520D02*
G01X01190Y00524D01*
G01X01190Y00524D02*
G01X01122Y00592D01*
G01X01122Y00592D02*
G01X01122Y00688D01*
G01X01122Y00688D02*
G01X01090Y00720D01*
G01X01090Y00720D02*
G01X01090Y00724D01*
G01X01146Y00672D02*
G01X01146Y00792D01*
G01X01146Y00792D02*
G01X01058Y00792D01*
G01X01058Y00792D02*
G01X00990Y00724D01*
G01X00834Y00768D02*
G01X00790Y00724D01*
G01X00834Y00768D02*
G01X00834Y01328D01*
G01X00834Y01328D02*
G01X00830Y01334D01*
G01X00722Y01208D02*
G01X00634Y01296D01*
G01X00634Y01296D02*
G01X00634Y01328D01*
G01X00634Y01328D02*
G01X00630Y01334D01*
G01X00590Y01224D02*
G01X00740Y01074D01*
G01X00740Y01074D02*
G01X00740Y00924D01*
G01X00740Y00924D02*
G01X00790Y00874D01*
G01X00650Y00848D02*
G01X00650Y01112D01*
G01X00650Y01112D02*
G01X00434Y01328D01*
G01X00434Y01328D02*
G01X00430Y01334D01*
G01X00338Y01328D02*
G01X00330Y01334D01*
G01X00338Y01328D02*
G01X00450Y01216D01*
G01X00450Y01216D02*
G01X00450Y00512D01*
G01X00450Y00512D02*
G01X00586Y00376D01*
G01X00586Y00376D02*
G01X00590Y00374D01*
G01X00590Y00474D02*
G01X00490Y00574D01*
G01X01140Y00874D02*
G01X01140Y01124D01*
G01X01140Y01124D02*
G01X01240Y01224D01*
G01X01234Y01160D02*
G01X01234Y00784D01*
G01X01234Y00784D02*
G01X01290Y00728D01*
G01X01290Y00728D02*
G01X01290Y00724D01*
G01X01330Y00816D02*
G01X01434Y00920D01*
G01X01434Y00920D02*
G01X01434Y01328D01*
G01X01434Y01328D02*
G01X01430Y01334D01*
G01X01338Y01328D02*
G01X01330Y01334D01*
G01X01338Y01328D02*
G01X01338Y00872D01*
G01X01590Y00724D02*
G01X01590Y00424D01*
G01X01546Y00376D02*
G01X01634Y00376D01*
G01X01634Y00376D02*
G01X01640Y00374D01*
G01X01640Y00374D02*
G01X01642Y00376D01*
G01X01546Y00376D02*
G01X01540Y00374D01*
G01X01340Y00424D02*
G01X01240Y00424D01*
G01X01240Y00424D02*
G01X01240Y00474D01*
G01X01194Y00520D02*
G01X01194Y00416D01*
G01X01194Y00416D02*
G01X01234Y00376D01*
G01X01234Y00376D02*
G01X01240Y00374D01*
G01X00794Y01024D02*
G01X00790Y01024D01*
G01X00794Y01024D02*
G01X00794Y01136D01*
G01X01830Y01334D02*
G01X01834Y01328D01*
G01X02740Y01224D02*
G01X02740Y01024D01*
G01X02834Y01120D02*
G01X02914Y01040D01*
G01X02914Y01040D02*
G01X02914Y00896D01*
G01X02914Y00896D02*
G01X03418Y00392D01*
G01X03418Y00392D02*
G01X03418Y00385D01*
G01X03418Y00563D02*
G01X03418Y00568D01*
G01X03418Y00568D02*
G01X03362Y00624D01*
G01X03362Y00624D02*
G01X03362Y00904D01*
G01X03362Y00904D02*
G01X03418Y00960D01*
G01X03418Y00960D02*
G01X03418Y00963D01*
G01X02890Y01274D02*
G01X02790Y01224D01*
G01X02790Y01224D02*
G01X02740Y01224D01*
G54D23*
G01X02834Y01120D03*
G01X02186Y01160D03*
G01X01690Y00874D03*
G01X01338Y00872D03*
G01X01330Y00816D03*
G01X01140Y00874D03*
G01X00790Y00874D03*
G01X00794Y01136D03*
G01X00722Y01208D03*
G01X00590Y01224D03*
G01X00340Y00974D03*
G01X00490Y00574D03*
G01X00590Y00474D03*
G01X01240Y00474D03*
G01X01340Y00424D03*
G01X01590Y00424D03*
G01X01234Y01160D03*
G01X01240Y01224D03*
G01X01640Y01174D03*
G54D24*
G01X02740Y01024D03*
G54D25*
G01X02186Y01240D02*
G01X02190Y01274D01*
G01X02074Y01140D02*
G01X01975Y01140D01*
G01X01975Y01140D02*
G01X01830Y01334D01*
G54D26*
G01X02290Y01328D02*
G01X02290Y01274D01*
G01X02290Y01328D02*
G01X02434Y01328D01*
G01X02434Y01328D02*
G01X02440Y01324D01*
G01X02840Y01324D02*
G01X03040Y01324D01*
M02*
