G04 This is an RS-274x file exported by *
G04 gerbv version 2.5.0 *
G04 More information is available about gerbv at *
G04 http://gerbv.gpleda.org/ *
G04 --End of header info--*
%MOIN*%
%FSLAX23Y23*%
%IPPOS*%
G04 --Define apertures--*
%ADD10C,0.0060*%
%ADD11C,0.0040*%
%ADD12C,0.0080*%
%ADD13C,0.0020*%
%ADD14R,0.0300X0.0250*%
%ADD15R,0.0500X0.1100*%
G04 --Start main section--*
G54D10*
G01X00436Y00477D02*
G01X00436Y00520D01*
G01X00436Y00499D02*
G01X00415Y00520D01*
G01X00415Y00520D02*
G01X00404Y00520D01*
G01X00458Y00509D02*
G01X00458Y00488D01*
G01X00458Y00488D02*
G01X00469Y00477D01*
G01X00469Y00477D02*
G01X00490Y00477D01*
G01X00490Y00477D02*
G01X00501Y00488D01*
G01X00501Y00488D02*
G01X00501Y00509D01*
G01X00501Y00509D02*
G01X00490Y00520D01*
G01X00490Y00520D02*
G01X00469Y00520D01*
G01X00469Y00520D02*
G01X00458Y00509D01*
G01X00522Y00520D02*
G01X00554Y00520D01*
G01X00554Y00520D02*
G01X00565Y00509D01*
G01X00565Y00509D02*
G01X00554Y00499D01*
G01X00554Y00499D02*
G01X00533Y00499D01*
G01X00533Y00499D02*
G01X00522Y00488D01*
G01X00522Y00488D02*
G01X00533Y00477D01*
G01X00533Y00477D02*
G01X00565Y00477D01*
G01X00587Y00477D02*
G01X00587Y00509D01*
G01X00587Y00509D02*
G01X00597Y00520D01*
G01X00597Y00520D02*
G01X00630Y00520D01*
G01X00630Y00520D02*
G01X00630Y00477D01*
G01X00651Y00499D02*
G01X00694Y00499D01*
G01X00694Y00488D02*
G01X00694Y00509D01*
G01X00694Y00509D02*
G01X00683Y00520D01*
G01X00683Y00520D02*
G01X00662Y00520D01*
G01X00662Y00520D02*
G01X00651Y00509D01*
G01X00651Y00509D02*
G01X00651Y00499D01*
G01X00662Y00477D02*
G01X00683Y00477D01*
G01X00683Y00477D02*
G01X00694Y00488D01*
G01X00716Y00488D02*
G01X00726Y00477D01*
G01X00726Y00477D02*
G01X00748Y00477D01*
G01X00748Y00477D02*
G01X00758Y00488D01*
G01X00748Y00509D02*
G01X00726Y00509D01*
G01X00726Y00509D02*
G01X00716Y00499D01*
G01X00716Y00499D02*
G01X00716Y00488D01*
G01X00748Y00509D02*
G01X00758Y00520D01*
G01X00758Y00520D02*
G01X00758Y00531D01*
G01X00758Y00531D02*
G01X00748Y00541D01*
G01X00748Y00541D02*
G01X00726Y00541D01*
G01X00726Y00541D02*
G01X00716Y00531D01*
G01X00845Y00509D02*
G01X00887Y00509D01*
G01X00410Y00764D02*
G01X00410Y00984D01*
G01X00410Y00984D02*
G01X01870Y00984D01*
G01X01870Y00984D02*
G01X01870Y00899D01*
G01X01870Y00899D02*
G01X01867Y00899D01*
G01X01867Y00899D02*
G01X01864Y00899D01*
G01X01864Y00899D02*
G01X01861Y00898D01*
G01X01861Y00898D02*
G01X01859Y00896D01*
G01X01859Y00896D02*
G01X01856Y00895D01*
G01X01856Y00895D02*
G01X01854Y00893D01*
G01X01854Y00893D02*
G01X01852Y00891D01*
G01X01852Y00891D02*
G01X01850Y00888D01*
G01X01850Y00888D02*
G01X01848Y00886D01*
G01X01848Y00886D02*
G01X01847Y00883D01*
G01X01847Y00883D02*
G01X01846Y00880D01*
G01X01846Y00880D02*
G01X01846Y00877D01*
G01X01846Y00877D02*
G01X01845Y00874D01*
G01X01845Y00874D02*
G01X01846Y00871D01*
G01X01846Y00871D02*
G01X01846Y00868D01*
G01X01846Y00868D02*
G01X01847Y00865D01*
G01X01847Y00865D02*
G01X01848Y00863D01*
G01X01848Y00863D02*
G01X01850Y00860D01*
G01X01850Y00860D02*
G01X01852Y00858D01*
G01X01852Y00858D02*
G01X01854Y00856D01*
G01X01854Y00856D02*
G01X01856Y00854D01*
G01X01856Y00854D02*
G01X01859Y00852D01*
G01X01859Y00852D02*
G01X01861Y00851D01*
G01X01861Y00851D02*
G01X01864Y00850D01*
G01X01864Y00850D02*
G01X01867Y00849D01*
G01X01867Y00849D02*
G01X01870Y00849D01*
G01X01870Y00849D02*
G01X01870Y00764D01*
G01X01870Y00764D02*
G01X00410Y00764D01*
G01X00316Y00820D02*
G01X00316Y00841D01*
G01X00327Y00830D02*
G01X00284Y00830D01*
G01X00284Y00830D02*
G01X00273Y00841D01*
G01X00273Y00863D02*
G01X00316Y00905D01*
G01X00316Y00863D02*
G01X00273Y00905D01*
G01X00467Y01177D02*
G01X00488Y01177D01*
G01X00488Y01177D02*
G01X00499Y01188D01*
G01X00499Y01188D02*
G01X00456Y01231D01*
G01X00456Y01231D02*
G01X00456Y01188D01*
G01X00456Y01188D02*
G01X00467Y01177D01*
G01X00499Y01188D02*
G01X00499Y01231D01*
G01X00499Y01231D02*
G01X00488Y01241D01*
G01X00488Y01241D02*
G01X00467Y01241D01*
G01X00467Y01241D02*
G01X00456Y01231D01*
G01X00553Y01231D02*
G01X00553Y01220D01*
G01X00553Y01220D02*
G01X00595Y01177D01*
G01X00595Y01177D02*
G01X00553Y01177D01*
G01X00531Y01177D02*
G01X00520Y01177D01*
G01X00520Y01177D02*
G01X00520Y01188D01*
G01X00520Y01188D02*
G01X00531Y01188D01*
G01X00531Y01188D02*
G01X00531Y01177D01*
G01X00617Y01220D02*
G01X00638Y01177D01*
G01X00638Y01177D02*
G01X00660Y01220D01*
G01X00595Y01231D02*
G01X00585Y01241D01*
G01X00585Y01241D02*
G01X00563Y01241D01*
G01X00563Y01241D02*
G01X00553Y01231D01*
G01X00746Y01220D02*
G01X00757Y01220D01*
G01X00757Y01220D02*
G01X00778Y01199D01*
G01X00778Y01177D02*
G01X00778Y01220D01*
G01X00800Y01209D02*
G01X00800Y01199D01*
G01X00800Y01199D02*
G01X00842Y01199D01*
G01X00842Y01188D02*
G01X00832Y01177D01*
G01X00832Y01177D02*
G01X00810Y01177D01*
G01X00842Y01188D02*
G01X00842Y01209D01*
G01X00842Y01209D02*
G01X00832Y01220D01*
G01X00832Y01220D02*
G01X00810Y01220D01*
G01X00810Y01220D02*
G01X00800Y01209D01*
G01X00864Y01177D02*
G01X00885Y01177D01*
G01X00875Y01177D02*
G01X00875Y01241D01*
G01X00875Y01241D02*
G01X00885Y01241D01*
G01X00918Y01241D02*
G01X00918Y01177D01*
G01X00928Y01177D02*
G01X00907Y01177D01*
G01X00950Y01188D02*
G01X00950Y01209D01*
G01X00950Y01209D02*
G01X00961Y01220D01*
G01X00961Y01220D02*
G01X00982Y01220D01*
G01X00982Y01220D02*
G01X00993Y01209D01*
G01X00993Y01209D02*
G01X00993Y01188D01*
G01X00993Y01188D02*
G01X00982Y01177D01*
G01X00982Y01177D02*
G01X00961Y01177D01*
G01X00961Y01177D02*
G01X00950Y01188D01*
G01X00928Y01241D02*
G01X00918Y01241D01*
G01X01014Y01220D02*
G01X01025Y01220D01*
G01X01025Y01220D02*
G01X01047Y01199D01*
G01X01047Y01177D02*
G01X01047Y01220D01*
G01X01068Y01220D02*
G01X01089Y01220D01*
G01X01079Y01231D02*
G01X01079Y01188D01*
G01X01079Y01188D02*
G01X01068Y01177D01*
G01X01111Y01177D02*
G01X01111Y01209D01*
G01X01111Y01209D02*
G01X01122Y01220D01*
G01X01122Y01220D02*
G01X01154Y01220D01*
G01X01154Y01220D02*
G01X01154Y01177D01*
G01X01176Y01188D02*
G01X01176Y01209D01*
G01X01176Y01209D02*
G01X01186Y01220D01*
G01X01186Y01220D02*
G01X01208Y01220D01*
G01X01208Y01220D02*
G01X01218Y01209D01*
G01X01218Y01209D02*
G01X01218Y01188D01*
G01X01218Y01188D02*
G01X01208Y01177D01*
G01X01208Y01177D02*
G01X01186Y01177D01*
G01X01186Y01177D02*
G01X01176Y01188D01*
G01X01240Y01188D02*
G01X01251Y01177D01*
G01X01251Y01177D02*
G01X01272Y01177D01*
G01X01272Y01177D02*
G01X01283Y01188D01*
G01X01283Y01188D02*
G01X01283Y01231D01*
G01X01283Y01231D02*
G01X01272Y01241D01*
G01X01272Y01241D02*
G01X01251Y01241D01*
G01X01251Y01241D02*
G01X01240Y01231D01*
G01X01305Y01220D02*
G01X01305Y01167D01*
G01X01305Y01167D02*
G01X01315Y01156D01*
G01X01315Y01156D02*
G01X01326Y01156D01*
G01X01337Y01177D02*
G01X01305Y01177D01*
G01X01337Y01177D02*
G01X01347Y01188D01*
G01X01347Y01188D02*
G01X01347Y01220D01*
G01X01369Y01209D02*
G01X01369Y01199D01*
G01X01369Y01199D02*
G01X01412Y01199D01*
G01X01412Y01188D02*
G01X01412Y01209D01*
G01X01412Y01209D02*
G01X01401Y01220D01*
G01X01401Y01220D02*
G01X01380Y01220D01*
G01X01380Y01220D02*
G01X01369Y01209D01*
G01X01380Y01177D02*
G01X01401Y01177D01*
G01X01401Y01177D02*
G01X01412Y01188D01*
G01X01433Y01177D02*
G01X01455Y01177D01*
G01X01444Y01177D02*
G01X01444Y01241D01*
G01X01444Y01241D02*
G01X01455Y01241D01*
G01X01476Y01220D02*
G01X01487Y01220D01*
G01X01487Y01220D02*
G01X01508Y01199D01*
G01X01508Y01177D02*
G01X01508Y01220D01*
G01X01530Y01209D02*
G01X01530Y01177D01*
G01X01530Y01177D02*
G01X01562Y01177D01*
G01X01562Y01177D02*
G01X01573Y01188D01*
G01X01573Y01188D02*
G01X01562Y01199D01*
G01X01562Y01199D02*
G01X01530Y01199D01*
G01X01530Y01209D02*
G01X01541Y01220D01*
G01X01541Y01220D02*
G01X01562Y01220D01*
G01X01595Y01241D02*
G01X01595Y01177D01*
G01X01637Y01177D02*
G01X01637Y01241D01*
G01X01637Y01241D02*
G01X01616Y01220D01*
G01X01616Y01220D02*
G01X01595Y01241D01*
G01X03037Y01231D02*
G01X03037Y01188D01*
G01X03058Y01209D02*
G01X03016Y01209D01*
G01X03145Y01209D02*
G01X03187Y01209D01*
G01X00318Y00509D02*
G01X00275Y00509D01*
G01X00297Y00488D02*
G01X00297Y00531D01*
G54D11*
G01X00323Y00576D02*
G01X00315Y00584D01*
G01X00315Y00584D02*
G01X00315Y00599D01*
G01X00315Y00599D02*
G01X00323Y00607D01*
G01X00323Y00607D02*
G01X00338Y00607D01*
G01X00338Y00607D02*
G01X00346Y00599D01*
G01X00346Y00599D02*
G01X00346Y00584D01*
G01X00346Y00584D02*
G01X00338Y00576D01*
G01X00338Y00576D02*
G01X00323Y00576D01*
G01X00361Y00576D02*
G01X00361Y00599D01*
G01X00361Y00599D02*
G01X00369Y00607D01*
G01X00369Y00607D02*
G01X00392Y00607D01*
G01X00392Y00607D02*
G01X00392Y00576D01*
G01X00407Y00576D02*
G01X00422Y00576D01*
G01X00415Y00576D02*
G01X00415Y00607D01*
G01X00415Y00607D02*
G01X00422Y00607D01*
G01X00438Y00607D02*
G01X00438Y00576D01*
G01X00438Y00576D02*
G01X00461Y00576D01*
G01X00461Y00576D02*
G01X00468Y00584D01*
G01X00468Y00584D02*
G01X00468Y00607D01*
G01X00484Y00607D02*
G01X00507Y00607D01*
G01X00507Y00607D02*
G01X00514Y00599D01*
G01X00514Y00599D02*
G01X00514Y00584D01*
G01X00514Y00584D02*
G01X00507Y00576D01*
G01X00507Y00576D02*
G01X00484Y00576D01*
G01X00484Y00576D02*
G01X00484Y00622D01*
G01X00530Y00607D02*
G01X00537Y00607D01*
G01X00537Y00607D02*
G01X00553Y00592D01*
G01X00553Y00576D02*
G01X00553Y00607D01*
G01X00568Y00599D02*
G01X00568Y00576D01*
G01X00568Y00576D02*
G01X00591Y00576D01*
G01X00591Y00576D02*
G01X00599Y00584D01*
G01X00599Y00584D02*
G01X00591Y00592D01*
G01X00591Y00592D02*
G01X00568Y00592D01*
G01X00568Y00599D02*
G01X00576Y00607D01*
G01X00576Y00607D02*
G01X00591Y00607D01*
G01X00614Y00622D02*
G01X00645Y00576D01*
G01X00660Y00576D02*
G01X00660Y00599D01*
G01X00660Y00599D02*
G01X00668Y00607D01*
G01X00668Y00607D02*
G01X00676Y00599D01*
G01X00676Y00599D02*
G01X00676Y00576D01*
G01X00691Y00576D02*
G01X00691Y00607D01*
G01X00691Y00607D02*
G01X00683Y00607D01*
G01X00683Y00607D02*
G01X00676Y00599D01*
G01X00706Y00599D02*
G01X00706Y00584D01*
G01X00706Y00584D02*
G01X00714Y00576D01*
G01X00714Y00576D02*
G01X00729Y00576D01*
G01X00729Y00576D02*
G01X00737Y00584D01*
G01X00737Y00584D02*
G01X00737Y00599D01*
G01X00737Y00599D02*
G01X00729Y00607D01*
G01X00729Y00607D02*
G01X00714Y00607D01*
G01X00714Y00607D02*
G01X00706Y00599D01*
G01X00752Y00607D02*
G01X00775Y00607D01*
G01X00775Y00607D02*
G01X00783Y00599D01*
G01X00783Y00599D02*
G01X00783Y00584D01*
G01X00783Y00584D02*
G01X00775Y00576D01*
G01X00775Y00576D02*
G01X00752Y00576D01*
G01X00798Y00576D02*
G01X00806Y00576D01*
G01X00806Y00576D02*
G01X00806Y00584D01*
G01X00806Y00584D02*
G01X00798Y00584D01*
G01X00798Y00584D02*
G01X00798Y00576D01*
G01X00821Y00576D02*
G01X00844Y00576D01*
G01X00844Y00576D02*
G01X00852Y00584D01*
G01X00852Y00584D02*
G01X00852Y00607D01*
G01X00867Y00599D02*
G01X00867Y00592D01*
G01X00867Y00592D02*
G01X00898Y00592D01*
G01X00898Y00584D02*
G01X00898Y00599D01*
G01X00898Y00599D02*
G01X00890Y00607D01*
G01X00890Y00607D02*
G01X00875Y00607D01*
G01X00875Y00607D02*
G01X00867Y00599D01*
G01X00875Y00576D02*
G01X00890Y00576D01*
G01X00890Y00576D02*
G01X00898Y00584D01*
G01X00913Y00576D02*
G01X00929Y00576D01*
G01X00921Y00576D02*
G01X00921Y00622D01*
G01X00921Y00622D02*
G01X00929Y00622D01*
G01X00944Y00607D02*
G01X00952Y00607D01*
G01X00952Y00607D02*
G01X00967Y00592D01*
G01X00982Y00592D02*
G01X01005Y00592D01*
G01X01005Y00592D02*
G01X01013Y00584D01*
G01X01013Y00584D02*
G01X01005Y00576D01*
G01X01005Y00576D02*
G01X00982Y00576D01*
G01X00982Y00576D02*
G01X00982Y00599D01*
G01X00982Y00599D02*
G01X00990Y00607D01*
G01X00990Y00607D02*
G01X01005Y00607D01*
G01X01028Y00599D02*
G01X01028Y00576D01*
G01X01044Y00576D02*
G01X01044Y00599D01*
G01X01044Y00599D02*
G01X01036Y00607D01*
G01X01036Y00607D02*
G01X01028Y00599D01*
G01X01044Y00599D02*
G01X01052Y00607D01*
G01X01052Y00607D02*
G01X01059Y00607D01*
G01X01059Y00607D02*
G01X01059Y00576D01*
G01X01082Y00576D02*
G01X01082Y00615D01*
G01X01082Y00615D02*
G01X01075Y00622D01*
G01X01075Y00599D02*
G01X01090Y00599D01*
G01X01105Y00599D02*
G01X01105Y00592D01*
G01X01105Y00592D02*
G01X01136Y00592D01*
G01X01136Y00584D02*
G01X01136Y00599D01*
G01X01136Y00599D02*
G01X01128Y00607D01*
G01X01128Y00607D02*
G01X01113Y00607D01*
G01X01113Y00607D02*
G01X01105Y00599D01*
G01X01113Y00576D02*
G01X01128Y00576D01*
G01X01128Y00576D02*
G01X01136Y00584D01*
G01X01151Y00576D02*
G01X01167Y00576D01*
G01X01159Y00576D02*
G01X01159Y00607D01*
G01X01159Y00607D02*
G01X01167Y00607D01*
G01X01159Y00622D02*
G01X01159Y00630D01*
G01X01190Y00607D02*
G01X01182Y00599D01*
G01X01182Y00599D02*
G01X01182Y00576D01*
G01X01213Y00576D02*
G01X01213Y00622D01*
G01X01205Y00607D02*
G01X01190Y00607D01*
G01X01205Y00607D02*
G01X01213Y00599D01*
G01X01228Y00607D02*
G01X01251Y00607D01*
G01X01251Y00607D02*
G01X01259Y00599D01*
G01X01259Y00599D02*
G01X01259Y00584D01*
G01X01259Y00584D02*
G01X01251Y00576D01*
G01X01251Y00576D02*
G01X01228Y00576D01*
G01X01274Y00576D02*
G01X01282Y00576D01*
G01X01282Y00576D02*
G01X01282Y00584D01*
G01X01282Y00584D02*
G01X01274Y00584D01*
G01X01274Y00584D02*
G01X01274Y00576D01*
G01X01297Y00584D02*
G01X01297Y00607D01*
G01X01328Y00607D02*
G01X01328Y00584D01*
G01X01328Y00584D02*
G01X01320Y00576D01*
G01X01320Y00576D02*
G01X01312Y00584D01*
G01X01312Y00584D02*
G01X01305Y00576D01*
G01X01305Y00576D02*
G01X01297Y00584D01*
G01X01343Y00584D02*
G01X01343Y00607D01*
G01X01374Y00607D02*
G01X01374Y00584D01*
G01X01374Y00584D02*
G01X01366Y00576D01*
G01X01366Y00576D02*
G01X01358Y00584D01*
G01X01358Y00584D02*
G01X01351Y00576D01*
G01X01351Y00576D02*
G01X01343Y00584D01*
G01X01389Y00584D02*
G01X01389Y00607D01*
G01X01420Y00607D02*
G01X01420Y00584D01*
G01X01420Y00584D02*
G01X01412Y00576D01*
G01X01412Y00576D02*
G01X01404Y00584D01*
G01X01404Y00584D02*
G01X01397Y00576D01*
G01X01397Y00576D02*
G01X01389Y00584D01*
G01X01435Y00622D02*
G01X01466Y00576D01*
G01X01512Y00576D02*
G01X01481Y00622D01*
G01X01527Y00607D02*
G01X01527Y00599D01*
G01X01527Y00599D02*
G01X01535Y00599D01*
G01X01535Y00599D02*
G01X01535Y00607D01*
G01X01535Y00607D02*
G01X01527Y00607D01*
G01X01550Y00599D02*
G01X01550Y00584D01*
G01X01550Y00584D02*
G01X01558Y00576D01*
G01X01558Y00576D02*
G01X01581Y00576D01*
G01X01596Y00576D02*
G01X01604Y00584D01*
G01X01604Y00584D02*
G01X01604Y00615D01*
G01X01612Y00607D02*
G01X01596Y00607D01*
G01X01581Y00607D02*
G01X01558Y00607D01*
G01X01558Y00607D02*
G01X01550Y00599D01*
G01X01535Y00584D02*
G01X01535Y00576D01*
G01X01535Y00576D02*
G01X01527Y00576D01*
G01X01527Y00576D02*
G01X01527Y00584D01*
G01X01527Y00584D02*
G01X01535Y00584D01*
G01X01581Y00561D02*
G01X01581Y00607D01*
G01X01627Y00607D02*
G01X01642Y00607D01*
G01X01635Y00615D02*
G01X01635Y00584D01*
G01X01635Y00584D02*
G01X01627Y00576D01*
G01X01658Y00576D02*
G01X01658Y00599D01*
G01X01658Y00599D02*
G01X01665Y00607D01*
G01X01665Y00607D02*
G01X01681Y00607D01*
G01X01681Y00607D02*
G01X01688Y00599D01*
G01X01688Y00622D02*
G01X01688Y00576D01*
G01X00967Y00576D02*
G01X00967Y00607D01*
G01X00837Y00561D02*
G01X00829Y00561D01*
G01X00829Y00561D02*
G01X00821Y00569D01*
G01X00821Y00569D02*
G01X00821Y00607D01*
G01X00415Y00622D02*
G01X00415Y00630D01*
M02*
