G04 This is an RS-274x file exported by *
G04 gerbv version 2.5.0 *
G04 More information is available about gerbv at *
G04 http://gerbv.gpleda.org/ *
G04 --End of header info--*
%MOIN*%
%FSLAX23Y23*%
%IPPOS*%
G04 --Define apertures--*
%ADD10C,0.0520*%
%AMMACRO11*
5,1,8,0.000000,0.000000,0.056284,22.500000*
%
%ADD11MACRO11*%
%ADD12C,0.1210*%
%ADD13C,0.0645*%
%ADD14C,0.0740*%
%ADD15C,0.0520*%
%ADD16R,0.0600X0.0600*%
%ADD17C,0.0600*%
%ADD18C,0.0560*%
%ADD19C,0.0660*%
%ADD20C,0.0780*%
%ADD21C,0.0100*%
%ADD22C,0.0400*%
%ADD23C,0.0396*%
G04 --Start main section--*
G54D10*
G01X00490Y00698D02*
G01X00490Y00750D01*
G01X00590Y00750D02*
G01X00590Y00698D01*
G01X00690Y00698D02*
G01X00690Y00750D01*
G01X00790Y00750D02*
G01X00790Y00698D01*
G01X00890Y00698D02*
G01X00890Y00750D01*
G01X00990Y00750D02*
G01X00990Y00698D01*
G01X01090Y00698D02*
G01X01090Y00750D01*
G01X01190Y00750D02*
G01X01190Y00698D01*
G01X01290Y00698D02*
G01X01290Y00750D01*
G01X01390Y00750D02*
G01X01390Y00698D01*
G01X01490Y00698D02*
G01X01490Y00750D01*
G01X01590Y00750D02*
G01X01590Y00698D01*
G01X01690Y00698D02*
G01X01690Y00750D01*
G01X01790Y00750D02*
G01X01790Y00698D01*
G01X02240Y00700D02*
G01X02240Y00648D01*
G01X02240Y00948D02*
G01X02240Y01000D01*
G01X01790Y00998D02*
G01X01790Y01050D01*
G01X01690Y01050D02*
G01X01690Y00998D01*
G01X01590Y00998D02*
G01X01590Y01050D01*
G01X01490Y01050D02*
G01X01490Y00998D01*
G01X01390Y00998D02*
G01X01390Y01050D01*
G01X01290Y01050D02*
G01X01290Y00998D01*
G01X01190Y00998D02*
G01X01190Y01050D01*
G01X01090Y01050D02*
G01X01090Y00998D01*
G01X00990Y00998D02*
G01X00990Y01050D01*
G01X00890Y01050D02*
G01X00890Y00998D01*
G01X00790Y00998D02*
G01X00790Y01050D01*
G01X00690Y01050D02*
G01X00690Y00998D01*
G01X00590Y00998D02*
G01X00590Y01050D01*
G01X00490Y01050D02*
G01X00490Y00998D01*
G54D11*
G01X01190Y00524D03*
G01X01290Y00524D03*
G01X01240Y00374D03*
G01X01540Y00374D03*
G01X01640Y00374D03*
G01X01890Y00524D03*
G01X01990Y00524D03*
G01X02040Y00374D03*
G01X01940Y00374D03*
G01X02440Y00374D03*
G01X02090Y00774D03*
G01X02015Y00824D03*
G01X02090Y00874D03*
G54D12*
G01X02890Y00364D03*
G01X02990Y01064D03*
G01X03290Y01064D03*
G54D13*
G01X02390Y00914D03*
G01X02390Y00514D03*
G54D14*
G01X03162Y00563D03*
G01X03418Y00563D03*
G01X03418Y00385D03*
G01X03162Y00385D03*
G01X03162Y00785D03*
G01X03418Y00785D03*
G01X03418Y00963D03*
G01X03162Y00963D03*
G01X03340Y01224D03*
G01X03440Y01224D03*
G01X03140Y01324D03*
G01X03040Y01324D03*
G01X00290Y00724D03*
G01X00290Y00624D03*
G54D15*
G01X01490Y00524D03*
G01X01690Y00524D03*
G54D16*
G01X00330Y01334D03*
G54D17*
G01X00430Y01334D03*
G01X00530Y01334D03*
G01X00630Y01334D03*
G01X00730Y01334D03*
G01X00830Y01334D03*
G01X00930Y01334D03*
G01X01030Y01334D03*
G01X01130Y01334D03*
G01X01230Y01334D03*
G01X01330Y01334D03*
G01X01430Y01334D03*
G01X01530Y01334D03*
G01X01630Y01334D03*
G01X01730Y01334D03*
G01X01830Y01334D03*
G54D18*
G01X00490Y00402D02*
G01X00490Y00346D01*
G01X00590Y00346D02*
G01X00590Y00402D01*
G54D19*
G01X02090Y01241D02*
G01X02090Y01307D01*
G01X02190Y01307D02*
G01X02190Y01241D01*
G01X02290Y01241D02*
G01X02290Y01307D01*
G54D20*
G01X02440Y01324D03*
G01X02840Y01324D03*
G54D21*
G01X02912Y01144D02*
G01X03320Y01144D01*
G01X03320Y01144D02*
G01X03440Y01224D01*
G01X03418Y00963D02*
G01X03240Y00963D01*
G01X03240Y00963D02*
G01X03240Y00874D01*
G01X03240Y00874D02*
G01X02740Y00874D01*
G01X02740Y00874D02*
G01X02740Y01024D01*
G01X02810Y01096D02*
G01X02826Y01080D01*
G01X02826Y01080D02*
G01X02848Y01080D01*
G01X02848Y01080D02*
G01X02912Y01144D01*
G01X02834Y01120D02*
G01X00810Y01120D01*
G01X00810Y01120D02*
G01X00794Y01136D01*
G01X00666Y01096D02*
G01X02810Y01096D01*
G01X02390Y00914D02*
G01X02386Y00912D01*
G01X02386Y00912D02*
G01X02354Y00880D01*
G01X02354Y00880D02*
G01X02090Y00880D01*
G01X02090Y00880D02*
G01X02090Y00874D01*
G01X02074Y00832D02*
G01X03138Y00832D01*
G01X03138Y00832D02*
G01X03146Y00840D01*
G01X03146Y00840D02*
G01X03370Y00840D01*
G01X03370Y00840D02*
G01X03418Y00792D01*
G01X03418Y00792D02*
G01X03418Y00785D01*
G01X03418Y00563D02*
G01X03418Y00560D01*
G01X03418Y00560D02*
G01X03298Y00440D01*
G01X03298Y00440D02*
G01X02370Y00440D01*
G01X02370Y00440D02*
G01X02290Y00520D01*
G01X02290Y00520D02*
G01X01994Y00520D01*
G01X01994Y00520D02*
G01X01990Y00524D01*
G01X01990Y00524D02*
G01X01946Y00480D01*
G01X01946Y00480D02*
G01X01346Y00480D01*
G01X01346Y00480D02*
G01X01240Y00374D01*
G01X01240Y00374D02*
G01X01234Y00376D01*
G01X01234Y00376D02*
G01X00594Y00376D01*
G01X00594Y00376D02*
G01X00590Y00374D01*
G01X00530Y00376D02*
G01X00490Y00376D01*
G01X00490Y00376D02*
G01X00490Y00374D01*
G01X00530Y00376D02*
G01X00530Y00752D01*
G01X00530Y00752D02*
G01X00690Y00912D01*
G01X00690Y00912D02*
G01X01490Y00912D01*
G01X01490Y00912D02*
G01X01490Y00724D01*
G01X01370Y00808D02*
G01X01338Y00776D01*
G01X01338Y00776D02*
G01X01322Y00776D01*
G01X01322Y00776D02*
G01X01306Y00792D01*
G01X01306Y00792D02*
G01X00754Y00792D01*
G01X00754Y00792D02*
G01X00690Y00728D01*
G01X00690Y00728D02*
G01X00690Y00724D01*
G01X00682Y00816D02*
G01X00590Y00724D01*
G01X00682Y00816D02*
G01X01330Y00816D01*
G01X01370Y00808D02*
G01X01370Y00872D01*
G01X01370Y00872D02*
G01X01338Y00872D01*
G01X01140Y00874D02*
G01X00790Y00874D01*
G01X00778Y00936D02*
G01X01970Y00936D01*
G01X01970Y00936D02*
G01X02074Y00832D01*
G01X01690Y00874D02*
G01X01690Y00724D01*
G01X01650Y00568D02*
G01X01690Y00528D01*
G01X01690Y00528D02*
G01X01690Y00524D01*
G01X01690Y00528D02*
G01X01890Y00528D01*
G01X01890Y00528D02*
G01X01890Y00524D01*
G01X01650Y00568D02*
G01X01042Y00568D01*
G01X01042Y00568D02*
G01X00890Y00720D01*
G01X00890Y00720D02*
G01X00890Y00724D01*
G01X01190Y00724D02*
G01X01322Y00592D01*
G01X01322Y00592D02*
G01X02314Y00592D01*
G01X02314Y00592D02*
G01X02386Y00520D01*
G01X02386Y00520D02*
G01X02390Y00514D01*
G01X01590Y00424D02*
G01X01340Y00424D01*
G01X01240Y00474D02*
G01X00590Y00474D01*
G01X00490Y00574D02*
G01X00340Y00724D01*
G01X00340Y00724D02*
G01X00290Y00724D01*
G01X00340Y00974D02*
G01X00590Y01224D01*
G01X00690Y01288D02*
G01X00730Y01328D01*
G01X00730Y01328D02*
G01X00730Y01334D01*
G01X00754Y01288D02*
G01X01586Y01288D01*
G01X01586Y01288D02*
G01X01626Y01328D01*
G01X01626Y01328D02*
G01X01630Y01334D01*
G01X01730Y01334D02*
G01X01791Y01274D01*
G01X01791Y01274D02*
G01X02090Y01274D01*
G01X02090Y01274D02*
G01X02186Y01160D01*
G01X01640Y01174D02*
G01X01590Y01224D01*
G01X01590Y01224D02*
G01X01240Y01224D01*
G01X01186Y01208D02*
G01X00722Y01208D01*
G01X00754Y01288D02*
G01X00490Y01024D01*
G01X00590Y01024D02*
G01X00594Y01024D01*
G01X00594Y01024D02*
G01X00666Y01096D01*
G01X00690Y01024D02*
G01X00778Y00936D01*
G01X01186Y01208D02*
G01X01234Y01160D01*
G01X00690Y01288D02*
G01X00378Y01288D01*
G01X00378Y01288D02*
G01X00338Y01328D01*
G01X00338Y01328D02*
G01X00330Y01334D01*
G01X01290Y00528D02*
G01X01290Y00524D01*
G01X01290Y00528D02*
G01X01490Y00528D01*
G01X01490Y00528D02*
G01X01490Y00524D01*
G54D22*
G01X01590Y00424D03*
G01X01340Y00424D03*
G01X01240Y00474D03*
G01X01330Y00816D03*
G01X01338Y00872D03*
G01X01140Y00874D03*
G01X00790Y00874D03*
G01X00794Y01136D03*
G01X00722Y01208D03*
G01X00590Y01224D03*
G01X00340Y00974D03*
G01X00490Y00574D03*
G01X00590Y00474D03*
G01X01690Y00874D03*
G01X01234Y01160D03*
G01X01240Y01224D03*
G01X01640Y01174D03*
G01X02186Y01160D03*
G01X02834Y01120D03*
G54D23*
G01X02740Y01024D03*
M02*
